<svg xmlns="http://www.w3.org/2000/svg" viewBox="0 0 400 400" width="400" height="400">
  <defs>
    <linearGradient id="bgGradMap" x1="0%" y1="0%" x2="100%" y2="100%">
      <stop offset="0%" style="stop-color:#030014"/>
      <stop offset="100%" style="stop-color:#0a0020"/>
    </linearGradient>
    <linearGradient id="btnGradMap" x1="0%" y1="0%" x2="100%" y2="100%">
      <stop offset="0%" style="stop-color:#7c3aed"/>
      <stop offset="100%" style="stop-color:#00f5ff"/>
    </linearGradient>
    <filter id="glowMap">
      <feGaussianBlur stdDeviation="4" result="coloredBlur"/>
      <feMerge>
        <feMergeNode in="coloredBlur"/>
        <feMergeNode in="SourceGraphic"/>
      </feMerge>
    </filter>
    <filter id="nodeGlow">
      <feGaussianBlur stdDeviation="6" result="coloredBlur"/>
      <feMerge>
        <feMergeNode in="coloredBlur"/>
        <feMergeNode in="SourceGraphic"/>
      </feMerge>
    </filter>
    <radialGradient id="cyanGlow" cx="50%" cy="50%" r="50%">
      <stop offset="0%" style="stop-color:#00f5ff;stop-opacity:0.8"/>
      <stop offset="100%" style="stop-color:#00f5ff;stop-opacity:0"/>
    </radialGradient>
    <radialGradient id="purpleNodeGlow" cx="50%" cy="50%" r="50%">
      <stop offset="0%" style="stop-color:#7c3aed;stop-opacity:0.6"/>
      <stop offset="100%" style="stop-color:#7c3aed;stop-opacity:0"/>
    </radialGradient>
    <radialGradient id="blueNodeGlow" cx="50%" cy="50%" r="50%">
      <stop offset="0%" style="stop-color:#3b82f6;stop-opacity:0.6"/>
      <stop offset="100%" style="stop-color:#3b82f6;stop-opacity:0"/>
    </radialGradient>
    <radialGradient id="greenNodeGlow" cx="50%" cy="50%" r="50%">
      <stop offset="0%" style="stop-color:#10b981;stop-opacity:0.6"/>
      <stop offset="100%" style="stop-color:#10b981;stop-opacity:0"/>
    </radialGradient>
    <radialGradient id="orangeNodeGlow" cx="50%" cy="50%" r="50%">
      <stop offset="0%" style="stop-color:#f59e0b;stop-opacity:0.6"/>
      <stop offset="100%" style="stop-color:#f59e0b;stop-opacity:0"/>
    </radialGradient>
    <radialGradient id="pinkNodeGlow" cx="50%" cy="50%" r="50%">
      <stop offset="0%" style="stop-color:#f472b6;stop-opacity:0.6"/>
      <stop offset="100%" style="stop-color:#f472b6;stop-opacity:0"/>
    </radialGradient>
  </defs>
  
  <!-- Background -->
  <rect width="400" height="400" fill="url(#bgGradMap)"/>
  
  <!-- Stars -->
  <g fill="white" opacity="0.4">
    <circle cx="20" cy="30" r="0.5"/>
    <circle cx="50" cy="80" r="0.5"/>
    <circle cx="90" cy="20" r="0.5"/>
    <circle cx="130" cy="60" r="0.5"/>
    <circle cx="180" cy="25" r="0.5"/>
    <circle cx="220" cy="55" r="0.5"/>
    <circle cx="270" cy="30" r="0.5"/>
    <circle cx="310" cy="70" r="0.5"/>
    <circle cx="350" cy="25" r="0.5"/>
    <circle cx="380" cy="60" r="0.5"/>
    <circle cx="35" cy="120" r="0.5"/>
    <circle cx="70" cy="160" r="0.5"/>
    <circle cx="25" cy="200" r="0.5"/>
    <circle cx="60" cy="250" r="0.5"/>
    <circle cx="30" cy="300" r="0.5"/>
    <circle cx="55" cy="350" r="0.5"/>
    <circle cx="90" cy="380" r="0.5"/>
    <circle cx="340" cy="130" r="0.5"/>
    <circle cx="370" cy="180" r="0.5"/>
    <circle cx="355" cy="230" r="0.5"/>
    <circle cx="380" cy="280" r="0.5"/>
    <circle cx="350" cy="330" r="0.5"/>
    <circle cx="320" cy="370" r="0.5"/>
    <circle cx="150" cy="380" r="0.5"/>
    <circle cx="200" cy="375" r="0.5"/>
    <circle cx="250" cy="385" r="0.5"/>
  </g>
  
  <!-- Edges (connections) -->
  <g stroke-width="1" opacity="0.4">
    <!-- Center to interests (purple) -->
    <line x1="200" y1="200" x2="120" y2="130" stroke="url(#btnGradMap)"/>
    <line x1="200" y1="200" x2="90" y2="200" stroke="url(#btnGradMap)"/>
    <line x1="200" y1="200" x2="130" y2="280" stroke="url(#btnGradMap)"/>
    
    <!-- Center to skills (blue) -->
    <line x1="200" y1="200" x2="280" y2="120" stroke="#3b82f6"/>
    <line x1="200" y1="200" x2="300" y2="200" stroke="#3b82f6"/>
    
    <!-- Center to goals (green) -->
    <line x1="200" y1="200" x2="270" y2="280" stroke="#10b981"/>
    <line x1="200" y1="200" x2="200" y2="320" stroke="#10b981"/>
    
    <!-- Center to challenges (orange) -->
    <line x1="200" y1="200" x2="100" y2="80" stroke="#f59e0b"/>
    
    <!-- Cross connections -->
    <line x1="120" y1="130" x2="280" y2="120" stroke="rgba(255,255,255,0.2)"/>
    <line x1="90" y1="200" x2="130" y2="280" stroke="rgba(255,255,255,0.2)"/>
    <line x1="280" y1="120" x2="300" y2="200" stroke="rgba(255,255,255,0.2)"/>
    <line x1="270" y1="280" x2="200" y2="320" stroke="rgba(255,255,255,0.2)"/>
    
    <!-- Suggestion connections -->
    <line x1="55" y1="320" x2="90" y2="200" stroke="#f472b6" opacity="0.3"/>
    <line x1="55" y1="320" x2="130" y2="280" stroke="#f472b6" opacity="0.3"/>
    <line x1="340" y1="320" x2="270" y2="280" stroke="#f472b6" opacity="0.3"/>
    <line x1="340" y1="320" x2="300" y2="200" stroke="#f472b6" opacity="0.3"/>
  </g>
  
  <!-- Nodes -->
  <!-- Center node - Cyan -->
  <ellipse cx="200" cy="200" rx="35" ry="35" fill="url(#cyanGlow)" filter="url(#nodeGlow)"/>
  <circle cx="200" cy="200" r="18" fill="#00f5ff"/>
  <text x="200" y="175" text-anchor="middle" font-family="Vazirmatn, Arial" font-size="10" fill="white">ุงูุฑุณุงูุงู</text>
  
  <!-- Interest nodes - Purple -->
  <ellipse cx="120" cy="130" rx="25" ry="25" fill="url(#purpleNodeGlow)"/>
  <circle cx="120" cy="130" r="12" fill="#7c3aed"/>
  <text x="120" y="110" text-anchor="middle" font-family="Vazirmatn, Arial" font-size="8" fill="white">๐ป ุชฺฉููููฺ</text>
  
  <ellipse cx="90" cy="200" rx="25" ry="25" fill="url(#purpleNodeGlow)"/>
  <circle cx="90" cy="200" r="12" fill="#7c3aed"/>
  <text x="90" y="180" text-anchor="middle" font-family="Vazirmatn, Arial" font-size="8" fill="white">๐ต ููุณู</text>
  
  <ellipse cx="130" cy="280" rx="25" ry="25" fill="url(#purpleNodeGlow)"/>
  <circle cx="130" cy="280" r="12" fill="#7c3aed"/>
  <text x="130" y="260" text-anchor="middle" font-family="Vazirmatn, Arial" font-size="8" fill="white">๐ผ ฺฉุณุจโูฺฉุงุฑ</text>
  
  <!-- Skill nodes - Blue -->
  <ellipse cx="280" cy="120" rx="25" ry="25" fill="url(#blueNodeGlow)"/>
  <circle cx="280" cy="120" r="12" fill="#3b82f6"/>
  <text x="280" y="100" text-anchor="middle" font-family="Vazirmatn, Arial" font-size="8" fill="white">๐จโ๐ป ุจุฑูุงููโููุณ</text>
  
  <ellipse cx="300" cy="200" rx="25" ry="25" fill="url(#blueNodeGlow)"/>
  <circle cx="300" cy="200" r="12" fill="#3b82f6"/>
  <text x="300" y="180" text-anchor="middle" font-family="Vazirmatn, Arial" font-size="8" fill="white">๐ก ุฎูุงูุช</text>
  
  <!-- Goal nodes - Green -->
  <ellipse cx="270" cy="280" rx="25" ry="25" fill="url(#greenNodeGlow)"/>
  <circle cx="270" cy="280" r="12" fill="#10b981"/>
  <text x="270" y="260" text-anchor="middle" font-family="Vazirmatn, Arial" font-size="7" fill="white">๐๏ธ ุณุงุฎุชู ูุญุตูู</text>
  
  <ellipse cx="200" cy="320" rx="25" ry="25" fill="url(#greenNodeGlow)"/>
  <circle cx="200" cy="320" r="12" fill="#10b981"/>
  <text x="200" y="340" text-anchor="middle" font-family="Vazirmatn, Arial" font-size="8" fill="white">๐ ุชุฃุซุฑฺฏุฐุงุฑ</text>
  
  <!-- Challenge node - Orange -->
  <ellipse cx="100" cy="80" rx="25" ry="25" fill="url(#orangeNodeGlow)"/>
  <circle cx="100" cy="80" r="12" fill="#f59e0b"/>
  <text x="100" y="60" text-anchor="middle" font-family="Vazirmatn, Arial" font-size="8" fill="white">๐ ุณุฑุฏุฑฺฏู</text>
  
  <!-- Suggestion nodes - Pink -->
  <ellipse cx="55" cy="320" rx="25" ry="25" fill="url(#pinkNodeGlow)"/>
  <circle cx="55" cy="320" r="14" fill="#f472b6"/>
  <text x="55" y="345" text-anchor="middle" font-family="Vazirmatn, Arial" font-size="7" fill="white">๐ ุงุณุชุงุฑุชุงูพ</text>
  
  <ellipse cx="340" cy="320" rx="25" ry="25" fill="url(#pinkNodeGlow)"/>
  <circle cx="340" cy="320" r="14" fill="#f472b6"/>
  <text x="340" y="345" text-anchor="middle" font-family="Vazirmatn, Arial" font-size="7" fill="white">๐ฎ ุจุงุฒโุณุงุฒ</text>
  
  <!-- Title panel -->
  <rect x="255" y="15" width="135" height="50" rx="12" ry="12" fill="rgba(0,0,0,0.4)" stroke="rgba(255,255,255,0.1)" stroke-width="1"/>
  <text x="322" y="37" text-anchor="middle" font-family="Vazirmatn, Arial" font-size="12" font-weight="600" fill="white">ููุดู ุฐูู ุงูุฑุณุงูุงู</text>
  <text x="322" y="53" text-anchor="middle" font-family="Vazirmatn, Arial" font-size="8" fill="rgba(255,255,255,0.6)">ุดุจฺฉู ุงูฺฉุงุฑ ู ุงุณุชุนุฏุงุฏูุง</text>
  
  <!-- Legend -->
  <rect x="10" y="15" width="90" height="110" rx="12" ry="12" fill="rgba(0,0,0,0.4)" stroke="rgba(255,255,255,0.1)" stroke-width="1"/>
  <text x="55" y="32" text-anchor="middle" font-family="Vazirmatn, Arial" font-size="9" font-weight="600" fill="rgba(255,255,255,0.8)">ุฑุงูููุง ุฑูฺฏโูุง</text>
  
  <circle cx="25" cy="47" r="5" fill="#00f5ff"/>
  <text x="35" y="50" font-family="Vazirmatn, Arial" font-size="7" fill="rgba(255,255,255,0.7)">ูุฑฺฉุฒ</text>
  
  <circle cx="25" cy="62" r="5" fill="#7c3aed"/>
  <text x="35" y="65" font-family="Vazirmatn, Arial" font-size="7" fill="rgba(255,255,255,0.7)">ุนูุงู</text>
  
  <circle cx="25" cy="77" r="5" fill="#3b82f6"/>
  <text x="35" y="80" font-family="Vazirmatn, Arial" font-size="7" fill="rgba(255,255,255,0.7)">ููุงุฑุชโูุง</text>
  
  <circle cx="25" cy="92" r="5" fill="#10b981"/>
  <text x="35" y="95" font-family="Vazirmatn, Arial" font-size="7" fill="rgba(255,255,255,0.7)">ุงูุฏุงู</text>
  
  <circle cx="25" cy="107" r="5" fill="#f59e0b"/>
  <text x="35" y="110" font-family="Vazirmatn, Arial" font-size="7" fill="rgba(255,255,255,0.7)">ฺุงูุดโูุง</text>
  
  <!-- Layout buttons -->
  <rect x="105" y="360" width="190" height="32" rx="16" ry="16" fill="rgba(0,0,0,0.4)" stroke="rgba(255,255,255,0.1)" stroke-width="1"/>
  
  <rect x="115" y="366" width="50" height="20" rx="10" ry="10" fill="url(#btnGradMap)"/>
  <text x="140" y="380" text-anchor="middle" font-family="Vazirmatn, Arial" font-size="8" fill="white">ุงุฑฺฏุงูฺฉ</text>
  
  <rect x="175" y="366" width="50" height="20" rx="10" ry="10" fill="rgba(255,255,255,0.1)"/>
  <text x="200" y="380" text-anchor="middle" font-family="Vazirmatn, Arial" font-size="8" fill="rgba(255,255,255,0.7)">ูุชูุฑฺฉุฒ</text>
  
  <rect x="235" y="366" width="50" height="20" rx="10" ry="10" fill="rgba(255,255,255,0.1)"/>
  <text x="260" y="380" text-anchor="middle" font-family="Vazirmatn, Arial" font-size="7" fill="rgba(255,255,255,0.7)">ุชูุฒุนโุดุฏู</text>
  
  <!-- Help text -->
  <text x="200" y="350" text-anchor="middle" font-family="Vazirmatn, Arial" font-size="8" fill="rgba(255,255,255,0.4)">ุฏุฑฺฏ: ฺุฑุฎุด | ุงุณฺฉุฑูู: ุฒูู | ฺฉูฺฉ: ุงูุชุฎุงุจ ฺฏุฑู</text>
</svg>